<svg width="53" height="53" viewBox="0 0 53 53" fill="none" xmlns="http://www.w3.org/2000/svg">
<g clip-path="url(#clip0_5_251)">
<circle cx="26.5" cy="26.5" r="26.5" fill="#D9D9D9"/>
<g clip-path="url(#clip1_5_251)">
<path d="M43 27C43 18.1635 35.8365 11 27 11C18.1635 11 11 18.1635 11 27C11 34.5034 16.1661 40.7997 23.135 42.529V31.8896H19.8358V27H23.135V24.8931C23.135 19.4474 25.5997 16.9232 30.9462 16.9232C31.96 16.9232 33.7091 17.1222 34.4246 17.3206V21.7526C34.047 21.713 33.391 21.6931 32.5763 21.6931C29.953 21.6931 28.9392 22.687 28.9392 25.2707V27H34.1654L33.2675 31.8896H28.9392V42.8829C36.8618 41.9261 43.0006 35.1805 43.0006 27H43Z" fill="#007EA7"/>
</g>
</g>
<defs>
<clipPath id="clip0_5_251">
<rect width="53" height="53" fill="white"/>
</clipPath>
<clipPath id="clip1_5_251">
<rect width="32" height="32" fill="white" transform="translate(11 11)"/>
</clipPath>
</defs>
</svg>
