<svg width="53" height="53" viewBox="0 0 53 53" fill="none" xmlns="http://www.w3.org/2000/svg">
<g clip-path="url(#clip0_5_254)">
<circle cx="26.5" cy="26.5" r="26.5" fill="#D9D9D9"/>
<g clip-path="url(#clip1_5_254)">
<path d="M27 13.8812C31.275 13.8812 31.7813 13.9 33.4625 13.975C35.025 14.0437 35.8688 14.3063 36.4313 14.525C37.175 14.8125 37.7125 15.1625 38.2688 15.7188C38.8313 16.2813 39.175 16.8125 39.4625 17.5563C39.6813 18.1188 39.9438 18.9687 40.0125 20.525C40.0875 22.2125 40.1063 22.7188 40.1063 26.9875C40.1063 31.2625 40.0875 31.7688 40.0125 33.45C39.9438 35.0125 39.6813 35.8563 39.4625 36.4188C39.175 37.1625 38.825 37.7 38.2688 38.2563C37.7063 38.8188 37.175 39.1625 36.4313 39.45C35.8688 39.6688 35.0188 39.9313 33.4625 40C31.775 40.075 31.2688 40.0938 27 40.0938C22.725 40.0938 22.2188 40.075 20.5375 40C18.975 39.9313 18.1313 39.6688 17.5688 39.45C16.825 39.1625 16.2875 38.8125 15.7313 38.2563C15.1688 37.6938 14.825 37.1625 14.5375 36.4188C14.3188 35.8563 14.0563 35.0063 13.9875 33.45C13.9125 31.7625 13.8938 31.2563 13.8938 26.9875C13.8938 22.7125 13.9125 22.2062 13.9875 20.525C14.0563 18.9625 14.3188 18.1188 14.5375 17.5563C14.825 16.8125 15.175 16.275 15.7313 15.7188C16.2938 15.1563 16.825 14.8125 17.5688 14.525C18.1313 14.3063 18.9813 14.0437 20.5375 13.975C22.2188 13.9 22.725 13.8812 27 13.8812ZM27 11C22.6563 11 22.1125 11.0187 20.4063 11.0938C18.7063 11.1688 17.5375 11.4437 16.525 11.8375C15.4688 12.25 14.575 12.7938 13.6875 13.6875C12.7938 14.575 12.25 15.4688 11.8375 16.5188C11.4437 17.5375 11.1688 18.7 11.0938 20.4C11.0188 22.1125 11 22.6563 11 27C11 31.3438 11.0188 31.8875 11.0938 33.5938C11.1688 35.2938 11.4437 36.4625 11.8375 37.475C12.25 38.5313 12.7938 39.425 13.6875 40.3125C14.575 41.2 15.4688 41.75 16.5188 42.1563C17.5375 42.55 18.7 42.825 20.4 42.9C22.1063 42.975 22.65 42.9937 26.9938 42.9937C31.3375 42.9937 31.8813 42.975 33.5875 42.9C35.2875 42.825 36.4563 42.55 37.4688 42.1563C38.5188 41.75 39.4125 41.2 40.3 40.3125C41.1875 39.425 41.7375 38.5313 42.1438 37.4813C42.5375 36.4625 42.8125 35.3 42.8875 33.6C42.9625 31.8938 42.9813 31.35 42.9813 27.0063C42.9813 22.6625 42.9625 22.1188 42.8875 20.4125C42.8125 18.7125 42.5375 17.5438 42.1438 16.5313C41.75 15.4688 41.2063 14.575 40.3125 13.6875C39.425 12.8 38.5313 12.25 37.4813 11.8438C36.4625 11.45 35.3 11.175 33.6 11.1C31.8875 11.0188 31.3438 11 27 11Z" fill="#007EA7"/>
<path d="M27 18.7812C22.4625 18.7812 18.7812 22.4625 18.7812 27C18.7812 31.5375 22.4625 35.2188 27 35.2188C31.5375 35.2188 35.2188 31.5375 35.2188 27C35.2188 22.4625 31.5375 18.7812 27 18.7812ZM27 32.3312C24.0563 32.3312 21.6687 29.9438 21.6687 27C21.6687 24.0563 24.0563 21.6687 27 21.6687C29.9438 21.6687 32.3312 24.0563 32.3312 27C32.3312 29.9438 29.9438 32.3312 27 32.3312Z" fill="#007EA7"/>
<path d="M37.4625 18.4564C37.4625 19.5189 36.6 20.3751 35.5438 20.3751C34.4813 20.3751 33.625 19.5126 33.625 18.4564C33.625 17.3938 34.4875 16.5376 35.5438 16.5376C36.6 16.5376 37.4625 17.4001 37.4625 18.4564Z" fill="#007EA7"/>
</g>
</g>
<defs>
<clipPath id="clip0_5_254">
<rect width="53" height="53" fill="white"/>
</clipPath>
<clipPath id="clip1_5_254">
<rect width="32" height="32" fill="white" transform="translate(11 11)"/>
</clipPath>
</defs>
</svg>
