<svg width="193" height="146" viewBox="0 0 193 146" fill="none" xmlns="http://www.w3.org/2000/svg">
<g clip-path="url(#clip0_141_21)">
<path d="M27.6724 66.5434C23.1323 66.5434 19.0275 65.7679 15.3581 64.2167C11.7509 62.6656 8.88998 60.432 6.7754 57.5159C4.66082 54.5997 3.57244 51.1562 3.51024 47.1853H17.5038C17.6904 49.8533 18.6233 51.9628 20.3025 53.5139C22.0439 55.0651 24.4073 55.8406 27.3926 55.8406C30.44 55.8406 32.8345 55.1271 34.5759 53.7001C36.3173 52.211 37.188 50.2876 37.188 47.9299C37.188 46.0065 36.5972 44.4243 35.4155 43.1834C34.2338 41.9425 32.7412 40.9808 30.9376 40.2983C29.1962 39.5538 26.7706 38.7472 23.6609 37.8786C19.4318 36.6377 15.98 35.4278 13.3057 34.2489C10.6936 33.008 8.42353 31.1777 6.49553 28.7579C4.62973 26.2761 3.69682 22.9877 3.69682 18.8927C3.69682 15.0459 4.66082 11.6955 6.58882 8.84143C8.51682 5.98735 11.2222 3.81577 14.7051 2.32669C18.1879 0.775564 22.1683 0 26.6462 0C33.3631 0 38.8051 1.6442 42.972 4.93259C47.2012 8.15893 49.5335 12.6882 49.9688 18.5205H35.6021C35.4777 16.2868 34.5137 14.4565 32.7101 13.0295C30.9687 11.5404 28.6364 10.7959 25.7133 10.7959C23.1634 10.7959 21.111 11.4473 19.5562 12.7503C18.0635 14.0532 17.3172 15.9456 17.3172 18.4274C17.3172 20.1647 17.8769 21.6227 18.9964 22.8016C20.1781 23.9184 21.6086 24.8491 23.2878 25.5936C25.0292 26.2761 27.4548 27.0827 30.5644 28.0134C34.7936 29.2543 38.2453 30.4952 40.9196 31.7361C43.594 32.977 45.8951 34.8383 47.8231 37.3202C49.7511 39.802 50.7151 43.0593 50.7151 47.0923C50.7151 50.5668 49.8133 53.7931 48.0097 56.7713C46.2061 59.7495 43.5629 62.1382 40.08 63.9375C36.5972 65.6748 32.4613 66.5434 27.6724 66.5434Z" fill="white"/>
<path d="M133.032 0.930676V65.8919H119.972V23.6392L102.526 65.8919H92.6374L75.0989 23.6392V65.8919H62.0382V0.930676H76.8714L97.5818 49.2328L118.292 0.930676H133.032Z" fill="white"/>
<path d="M43.9397 132.04H18.005L13.7137 144.418H0L23.4159 79.3635H38.6222L62.038 144.418H48.2311L43.9397 132.04ZM40.3947 121.616L30.9724 94.4405L21.5501 121.616H40.3947Z" fill="white"/>
<path d="M106.934 144.418L83.2382 115.474V144.418H70.1776V79.4566H83.2382V108.587L106.934 79.4566H122.7L95.8324 111.658L123.446 144.418H106.934Z" fill="white"/>
<path d="M159.695 146C153.6 146 148.003 144.573 142.903 141.719C137.803 138.865 133.761 134.925 130.775 129.899C127.79 124.812 126.297 119.072 126.297 112.682C126.297 106.353 127.79 100.676 130.775 95.6504C133.761 90.5627 137.803 86.5918 142.903 83.7377C148.003 80.8836 153.6 79.4566 159.695 79.4566C165.852 79.4566 171.45 80.8836 176.488 83.7377C181.587 86.5918 185.599 90.5627 188.522 95.6504C191.507 100.676 193 106.353 193 112.682C193 119.072 191.507 124.812 188.522 129.899C185.599 134.925 181.587 138.865 176.488 141.719C171.388 144.573 165.79 146 159.695 146ZM159.695 134.367C163.614 134.367 167.065 133.498 170.051 131.761C173.036 129.961 175.368 127.417 177.047 124.129C178.727 120.841 179.566 117.025 179.566 112.682C179.566 108.339 178.727 104.554 177.047 101.327C175.368 98.0391 173.036 95.5263 170.051 93.789C167.065 92.0517 163.614 91.1831 159.695 91.1831C155.777 91.1831 152.294 92.0517 149.247 93.789C146.262 95.5263 143.929 98.0391 142.25 101.327C140.571 104.554 139.731 108.339 139.731 112.682C139.731 117.025 140.571 120.841 142.25 124.129C143.929 127.417 146.262 129.961 149.247 131.761C152.294 133.498 155.777 134.367 159.695 134.367Z" fill="white"/>
</g>
<defs>
<clipPath id="clip0_141_21">
<rect width="193" height="146" fill="white"/>
</clipPath>
</defs>
</svg>
